<mxfile host="app.diagrams.net" modified="2024-05-22T11:29:13.040Z" agent="Mozilla/5.0 (Windows NT 10.0; Win64; x64; rv:126.0) Gecko/20100101 Firefox/126.0" version="24.4.4" etag="L4oRSOOTWzd4ACWYhGST" type="github">
  <diagram name="Страница — 1" id="SKOE9lxcBVE--XX4vaFt">
    <mxGraphModel>
      <root>
        <mxCell id="0" />
        <mxCell id="1" parent="0" />
      </root>
    </mxGraphModel>
  </diagram>
</mxfile>
